<svg width="662" height="799" viewBox="0 0 662 799" fill="none" xmlns="http://www.w3.org/2000/svg">
<path d="M263.861 116.313L260.866 114.118C252.412 107.923 242.436 104.136 232 103.16L254.473 103.083L276.673 104.204L287.705 105.856C289.15 106.073 289.529 107.982 288.275 108.733L282.718 112.065L271.9 119.657C270.378 120.724 268.315 120.568 266.972 119.285L263.861 116.313Z" fill="url(#paint0_linear_666_414)"/>
<path d="M164.516 720.693L150.767 729.508C147.278 731.745 143.046 732.511 138.993 731.641C137.04 731.221 135.135 730.605 133.305 729.803L126.6 726.862C120.338 724.115 114.718 720.092 110.1 715.049C106.091 710.67 102.909 705.602 100.707 700.088L92.2604 678.936C87.8568 661.835 84.7071 644.436 82.8363 626.876L81.7745 616.91L80 564.588L81.2906 516.071L85.9689 467.363L92.7443 416.373L101.778 367.094L113.393 318.387L127.106 271.202L141.302 230.105L158.402 189.769L175.341 157.805L188.246 139.73L202.498 124.426C207.381 119.183 213.021 114.687 219.219 111.094C219.325 111.032 219.446 111 219.568 111H221.184C226.304 111 231.402 111.684 236.341 113.034C240.188 114.085 243.915 115.534 247.462 117.356L254.849 121.152C255.55 121.512 255.563 122.511 254.87 122.889C245.049 128.242 236.214 135.233 228.745 143.56L219.381 154L218.858 154.666C198.567 180.475 182.296 209.204 170.596 239.878L158.402 287.15L146.464 342.931L138.237 380.984L128.396 440.726L122.75 503.513L120.814 551.84L122.75 587.229L125.17 616.91L131.623 653.25L134.594 664.515C137.121 674.095 140.784 683.338 145.506 692.048C149.148 698.767 153.403 705.136 158.215 711.074L164.764 719.154C165.157 719.639 165.041 720.357 164.516 720.693Z" fill="url(#paint1_linear_666_414)"/>
<path d="M309.249 183.05L288.664 201.001C287.741 201.806 287.25 202.999 287.34 204.221L291.323 258.463L289.9 324.072L284.637 390.624L273.824 465.095L259.17 536.737L240.391 601.404L220.188 655.702L204.331 686.938C200.874 693.748 196.751 700.2 192.023 706.199L190.748 707.817C183.027 717.613 173.612 725.947 162.951 732.422C162.754 732.542 162.868 732.847 163.096 732.806L179.072 729.983L192.969 727.196C201.176 725.55 208.994 722.354 216.003 717.78C221.419 714.246 226.285 709.933 230.444 704.98L236.663 697.574C242.358 690.792 247.352 683.451 251.567 675.662L265.43 650.046L287.482 595.182L305.835 532.778L317.928 475.464L326.606 417.962L331.159 372.714L335 324.072V274.299L333.008 237.347L329.025 206.993L324.899 187.197L323.115 179.674C322.474 176.972 319.293 175.79 317.043 177.416L309.249 183.05Z" fill="url(#paint2_linear_666_414)"/>
<path d="M338.506 373.04L339.835 352.327C339.941 350.684 341.068 349.285 342.65 348.832L373.132 340.106L403.68 326.816L442 308.729L471.01 293.365L505.649 268.471L528.598 247.661L545.268 228.796L559.773 207.597L562.838 201.414C568.411 190.174 572.223 178.143 574.14 165.744C575.097 159.555 575.577 153.302 575.577 147.04V146.402C575.577 145.412 576.707 144.847 577.499 145.441L593.438 157.394C598.064 160.863 601.806 165.373 604.363 170.559C606.231 174.348 607.432 178.43 607.914 182.627L608.591 188.521C609.523 196.639 609.047 204.857 607.182 212.813L606.498 215.732C604.798 222.985 602.186 229.995 598.724 236.592L595.183 243.34C591.5 250.358 587.26 257.069 582.503 263.409L579.615 267.257C573.18 275.833 566.092 283.898 558.413 291.38L544.402 305.034L517.557 325.066L494.392 339.847L446.763 363.574L418.402 374.465L370.124 388.273L341.799 392.315C339.334 392.667 337.177 390.649 337.365 388.166L338.506 373.04Z" fill="url(#paint3_linear_666_414)"/>
<path d="M211.21 319.125L211.502 323.211C211.616 324.807 209.361 325.256 208.855 323.739L204.093 309.452L199.673 297.562C197.174 290.839 195.428 283.859 194.465 276.752C193.744 271.427 193.466 266.051 193.634 260.68L193.966 250.055C195.257 238.82 198.183 227.834 202.65 217.445L204.288 213.638C207.527 206.51 211.369 199.672 215.772 193.198L219.07 188.347C225.691 178.61 233.134 169.459 241.317 160.992L244.296 157.909C252.797 149.113 261.916 140.937 271.584 133.445L272.643 132.624L309.449 108.086C320.34 101.215 331.724 95.157 343.507 89.9623L343.919 89.7805L375.273 77.9011L390.427 73.6616C402.118 70.3909 414.045 68.0319 426.101 66.606L452.586 65.4375H474.982L489.783 66.606L504.973 69.9166L516.563 73.1008C520.639 74.2207 524.587 75.7643 528.342 77.7064L541.681 84.9127C544.079 86.2079 546.355 87.7156 548.483 89.4179C550.243 90.8262 551.896 92.3632 553.429 94.0164L568.459 110.229L582.481 129.898L591.466 143.668C592.1 144.639 590.77 145.681 589.979 144.832C584.355 138.797 577.967 133.521 570.977 129.139L568.459 127.561L564.564 125.746C555.756 121.642 546.574 118.398 537.143 116.056C527.792 113.734 518.24 112.312 508.617 111.808L502.144 111.469C491.322 110.903 480.471 111.141 469.684 112.182L463.109 112.816C448.718 114.205 434.464 116.766 420.489 120.475C407.113 124.025 394.036 128.615 381.375 134.203L343.919 150.735L322.175 164.117C302.952 175.946 284.793 189.424 267.905 204.399L264.074 207.796L253.518 219.625C245.512 228.598 238.335 238.278 232.075 248.546L229.449 252.854C225.923 258.639 222.843 264.686 220.237 270.941L218.323 275.533C215.082 283.311 212.884 291.483 211.784 299.837C210.943 306.231 210.751 312.693 211.21 319.125Z" fill="url(#paint4_linear_666_414)"/>
<path d="M222.781 325.619L219.685 322.597C218.416 321.358 216.29 322.364 216.443 324.131L217.547 336.931C217.948 341.57 218.928 346.141 220.466 350.536C222.773 355.063 225.601 359.305 228.891 363.177L231.547 366.304L236.294 371.031C238.859 373.586 241.628 375.927 244.573 378.032C247.791 380.331 251.207 382.34 254.782 384.034L262.145 387.523L271.046 390.497C273.374 391.275 275.832 389.732 276.144 387.298L280.521 353.108C280.788 351.023 279.352 349.103 277.277 348.768L265.288 346.837L258.01 345.085L250.898 342.555C243.745 339.446 236.874 335.723 230.364 331.427L229.232 330.68L222.781 325.619Z" fill="url(#paint5_linear_666_414)"/>
<defs>
<linearGradient id="paint0_linear_666_414" x1="264.123" y1="100.255" x2="266.071" y2="121.783" gradientUnits="userSpaceOnUse">
<stop stop-color="#FF5C5C"/>
<stop offset="1" stop-color="#2676FF"/>
</linearGradient>
<linearGradient id="paint1_linear_666_414" x1="201.956" y1="45.7382" x2="340.547" y2="985.319" gradientUnits="userSpaceOnUse">
<stop stop-color="#FF5C5C"/>
<stop offset="0.83" stop-color="#2676FF"/>
</linearGradient>
<linearGradient id="paint2_linear_666_414" x1="248.5" y1="174" x2="248.298" y2="825.811" gradientUnits="userSpaceOnUse">
<stop stop-color="#FF5C5C"/>
<stop offset="1" stop-color="#2676FF"/>
</linearGradient>
<linearGradient id="paint3_linear_666_414" x1="473.5" y1="144" x2="446.221" y2="445.959" gradientUnits="userSpaceOnUse">
<stop offset="0.365" stop-color="#FF5C5C"/>
<stop offset="1" stop-color="#2676FF"/>
</linearGradient>
<linearGradient id="paint4_linear_666_414" x1="395.429" y1="65.4375" x2="395.429" y2="333.99" gradientUnits="userSpaceOnUse">
<stop stop-color="#FF5C5C"/>
<stop offset="1" stop-color="#2676FF"/>
</linearGradient>
<linearGradient id="paint5_linear_666_414" x1="248.5" y1="319" x2="248.219" y2="426.773" gradientUnits="userSpaceOnUse">
<stop stop-color="#FF5C5C"/>
<stop offset="1" stop-color="#2676FF"/>
</linearGradient>
</defs>
</svg>
