<?xml version="1.0" standalone="no"?>
<!DOCTYPE svg PUBLIC "-//W3C//DTD SVG 20010904//EN"
 "http://www.w3.org/TR/2001/REC-SVG-20010904/DTD/svg10.dtd">
<svg version="1.0" xmlns="http://www.w3.org/2000/svg"
 width="1600.000000pt" height="1600.000000pt" viewBox="0 0 1600.000000 1600.000000"
 preserveAspectRatio="xMidYMid meet">
<g transform="translate(0.000000,1600.000000) scale(0.100000,-0.100000)"
fill="#000000" stroke="none">
<path d="M20 8000 l0 -7980 7980 0 7980 0 0 2785 c0 2646 -1 2785 -17 2786
-10 0 -605 0 -1323 1 l-1305 1 -88 -174 c-108 -214 -187 -357 -285 -514 -83
-133 -262 -392 -326 -471 -22 -28 -54 -69 -71 -90 -299 -384 -816 -869 -1216
-1141 -126 -86 -273 -183 -313 -206 -21 -12 -46 -26 -55 -32 -340 -208 -826
-426 -1236 -554 -119 -36 -336 -96 -386 -106 -11 -2 -28 -6 -37 -9 -9 -3 -28
-7 -42 -10 -14 -2 -45 -9 -70 -15 -59 -14 -254 -50 -305 -56 -22 -3 -50 -7
-63 -10 -13 -2 -49 -7 -80 -10 -31 -3 -66 -7 -77 -9 -11 -2 -54 -7 -95 -11
-41 -4 -95 -9 -120 -11 -218 -21 -707 -21 -925 0 -27 3 -80 8 -117 11 -37 3
-77 8 -90 10 -13 2 -48 6 -79 10 -31 3 -65 7 -75 9 -11 2 -41 7 -69 10 -27 4
-57 9 -65 11 -8 2 -31 6 -50 9 -132 20 -369 74 -560 127 -164 46 -470 147
-484 160 -6 5 -16 9 -22 9 -40 0 -550 233 -724 331 -285 160 -629 385 -776
508 -17 14 -60 49 -95 76 -184 145 -512 454 -684 646 -73 81 -199 233 -270
324 -38 50 -72 92 -75 95 -6 6 -39 52 -109 155 -30 44 -59 82 -63 83 -4 2 -8
8 -8 13 0 6 -22 42 -48 82 -220 328 -454 800 -593 1196 -79 223 -150 457 -174
574 -4 21 -15 69 -35 147 -12 50 -46 232 -60 320 -6 41 -13 86 -15 99 -5 31
-13 92 -20 156 -3 28 -8 68 -11 90 -31 260 -37 888 -9 1075 2 14 6 60 10 103
3 43 8 86 10 95 1 9 6 42 9 72 4 30 8 66 11 80 2 14 13 79 24 145 18 104 37
201 57 295 14 65 75 297 107 405 114 383 307 834 504 1176 28 48 53 93 57 100
7 16 12 24 119 192 75 117 253 366 327 458 164 203 234 281 420 472 179 184
449 425 600 537 18 14 45 34 59 46 129 104 452 314 676 439 115 64 455 235
468 235 4 0 30 11 59 24 174 80 612 236 730 261 9 2 51 13 93 25 42 12 84 23
93 25 9 2 78 17 152 34 123 27 251 51 355 66 22 4 51 8 65 10 14 3 50 7 80 11
30 3 63 8 73 10 10 2 55 6 100 9 45 4 93 8 107 11 41 7 324 18 480 18 148 0
479 -12 489 -18 3 -2 44 -7 91 -10 47 -4 94 -9 105 -11 11 -2 44 -7 74 -10 30
-3 64 -8 75 -10 12 -2 39 -7 61 -10 123 -16 375 -67 540 -110 644 -166 1228
-427 1785 -798 419 -279 823 -633 1160 -1017 41 -47 77 -87 80 -90 3 -3 21
-25 40 -50 19 -25 37 -47 41 -50 4 -3 22 -25 41 -50 18 -25 68 -90 110 -145
69 -92 222 -314 258 -376 8 -14 47 -79 86 -145 105 -175 242 -438 304 -581 12
-29 28 -53 34 -54 15 -1 2556 -1 2579 0 16 1 17 143 17 2831 l0 2830 -7980 0
-7980 0 0 -7980z"/>
</g>
</svg>
