<svg xmlns="http://www.w3.org/2000/svg" fill="none" viewBox="1.66 1.87 16.67 16.28"><path fill="#02010A" d="M9.99 1.87a8.35 8.35 0 0 1 2.63 16.25c-.3.1-.55-.07-.55-.42v-2.27c0-1.13-.58-1.54-.58-1.54 1.83-.2 3.82-.9 3.82-4.1 0-1.42-.87-2.25-.87-2.25s.45-.93-.06-2.21c0 0-.7-.23-2.3.86a7.67 7.67 0 0 0-4.17 0C6.3 5.1 5.6 5.33 5.6 5.33c-.52 1.28-.07 2.21-.07 2.21s-.86.83-.86 2.24c0 3.21 1.99 3.91 3.81 4.1 0 0-.45.33-.54 1.13-.48.22-1.7.58-2.44-.7 0 0-.42-.8-1.25-.87 0 0-.83 0-.06.51 0 0 .54.26.93 1.22 0 0 .51 1.63 2.82 1.12v1.41c0 .35-.3.51-.58.42A8.35 8.35 0 0 1 9.99 1.87Z"/></svg>