<svg width="46" height="46" viewBox="0 0 46 46" fill="none" xmlns="http://www.w3.org/2000/svg">
<circle cx="23" cy="23" r="23" fill="#4615C8"/>
<g transform="translate(2.387695 3)">
<path d="M37.0882 19.872C37.026 19.499 36.6738 19.2158 36.2594 19.2158H15.5456C15.3453 19.2158 15.2693 19.057 15.2555 19.0086C15.2416 18.9603 15.1933 18.7945 15.3522 18.6633L26.196 9.85697C26.5137 9.60142 26.6173 9.15937 26.4239 8.82784C26.3065 8.62063 26.1131 8.4825 25.8783 8.44105C25.6504 8.39961 25.4155 8.45487 25.2359 8.60682L14.4405 17.3786C14.2816 17.5098 14.1227 17.4269 14.0813 17.3993C14.0398 17.3717 13.8948 17.2681 13.9431 17.0678L15.29 11.2453C15.3798 10.8447 15.1864 10.4372 14.841 10.2921C14.62 10.2023 14.3852 10.2092 14.1711 10.3197C13.9708 10.4233 13.8188 10.6167 13.7705 10.8447L12.2164 17.572C12.175 17.7516 12.023 17.793 11.9816 17.8068C11.9401 17.8206 11.7813 17.8345 11.6708 17.6894L9.43294 14.7747C9.18429 14.4501 8.74224 14.3396 8.41071 14.5191C8.20351 14.6296 8.05846 14.823 8.01011 15.051C7.96176 15.2789 8.01011 15.5137 8.15516 15.6933L10.4828 18.7254C10.5588 18.8221 10.5657 18.9465 10.5173 19.0501C10.4621 19.1606 10.3585 19.2227 10.241 19.2227H4.12843C3.71401 19.2227 3.36176 19.5059 3.2996 19.8789C3.25816 20.1137 3.32032 20.3417 3.47918 20.5212C3.63113 20.7008 3.84525 20.7975 4.08008 20.7975H9.37768C9.57798 20.7975 9.65395 20.9564 9.66777 21.0047C9.68158 21.0531 9.72994 21.2188 9.57108 21.3501L6.1038 24.1681C5.79299 24.4167 5.69629 24.8519 5.86897 25.1696C5.97948 25.3768 6.17978 25.5218 6.42152 25.5702C6.65635 25.6185 6.89119 25.5633 7.06386 25.4182L10.4828 22.6348C10.6416 22.5035 10.8005 22.5864 10.8419 22.614C10.8834 22.6417 11.0284 22.7453 10.9801 22.9456L9.63323 28.775C9.54344 29.1549 9.71612 29.5417 10.0338 29.7005C10.248 29.8041 10.5035 29.811 10.7245 29.7005C10.9455 29.5969 11.1044 29.4035 11.1597 29.1756L12.7137 22.4483C12.7552 22.2687 12.9071 22.2272 12.9486 22.2134C12.9969 22.2065 13.1489 22.1858 13.2594 22.3309L20.1387 31.2753C20.2699 31.4549 20.484 31.5585 20.7119 31.5723C20.7257 31.5723 20.7465 31.5723 20.7603 31.5723C20.9813 31.5723 21.1885 31.4825 21.3335 31.3306C21.596 31.0543 21.6029 30.6053 21.3543 30.2807L14.4405 21.2948C14.3645 21.1981 14.3576 21.0738 14.4059 20.9702C14.4612 20.8597 14.5648 20.7975 14.6822 20.7975H36.3146C36.5495 20.7975 36.7636 20.6939 36.9155 20.5212C37.0675 20.3417 37.1297 20.1137 37.0951 19.8789L37.0882 19.872Z" fill="white"/>
</g>
</svg>
