<svg xmlns="http://www.w3.org/2000/svg" fill="none" viewBox="1.67 3.39 16.67 13.27"><path fill="currentColor" d="M18.33 4.96c-.62.27-1.28.45-1.96.52a3.37 3.37 0 0 0 1.5-1.85c-.67.4-1.4.67-2.17.81a3.45 3.45 0 0 0-5.91 2.3c0 .26.03.51.08.76A9.78 9.78 0 0 1 2.83 4c-.3.5-.47 1.07-.47 1.68 0 1.17.6 2.2 1.53 2.8a3.46 3.46 0 0 1-1.55-.43v.05a3.37 3.37 0 0 0 2.74 3.28 3.5 3.5 0 0 1-1.55.06 3.41 3.41 0 0 0 3.2 2.33 6.95 6.95 0 0 1-5.06 1.38 9.82 9.82 0 0 0 5.24 1.5 9.56 9.56 0 0 0 9.72-9.96 6.87 6.87 0 0 0 1.7-1.73Z"/></svg>