<svg width="16" height="16" viewBox="0 0 16 16" fill="none" xmlns="http://www.w3.org/2000/svg">
<path d="M8.00008 0.796875C4.02824 0.796875 0.796875 4.02808 0.796875 8.00008C0.796875 11.9721 4.02808 15.2033 8.00008 15.2033C11.9721 15.2033 15.2033 11.9721 15.2033 8.00008C15.2033 4.02808 11.9721 0.796875 8.00008 0.796875ZM8.00008 13.7631C4.822 13.7631 2.23688 11.1775 2.23688 7.99992C2.23688 4.82184 4.82184 2.23672 8.00008 2.23672C11.1783 2.23672 13.7633 4.82232 13.7633 7.99992C13.7633 11.1775 11.1783 13.7631 8.00008 13.7631Z" fill="black"/>
<path d="M8.72125 3.82031H7.28125V8.29967L10.2976 11.2997L11.3126 10.2784L8.72138 7.70098L8.72125 3.82031Z" fill="black"/>
</svg>
