<svg xmlns="http://www.w3.org/2000/svg" fill="none" viewBox="0 0 17 16"><path fill="#000" d="M12.5 12h4v4h-4z"/><path fill="#000" d="M12.5 0h4v4h-4z"/><path fill="#000" d="M8.5 12h4v4h-4z"/><path fill="#000" d="M12.5 8h4v4h-4z"/><path fill="#000" d="M12.5 4h4v4h-4z"/><path fill="#000" d="M8.5 0h4v4h-4z"/><path fill="#000" d="M4.5 12h4v4h-4z"/><path fill="#000" d="M8.5 8h4v4h-4z"/><path fill="#000" d="M8.5 4h4v4h-4z"/><path fill="#000" d="M4.5 0h4v4h-4z"/><path fill="#000" d="M.5 12h4v4h-4z"/><path fill="#000" d="M4.5 8h4v4h-4z"/><path fill="#000" d="M4.5 4h4v4h-4z"/><path fill="#000" d="M.5 0h4v4h-4z"/></svg>