<svg xmlns="http://www.w3.org/2000/svg" fill="none" viewBox="0 0 16 14"><path fill="#000" d="m4.7 11.28 3.03-3.36 3.03 3.36c.37.41.89.65 1.45.65h1.8l-1.02 1.06.96.89 2.55-2.7-2.55-2.74-.96.9 1.24 1.3H12.2a.65.65 0 0 1-.47-.23L8.6 6.95l3.11-3.46a.7.7 0 0 1 .48-.22h2.01l-1.23 1.3.95.89 2.58-2.73L13.94 0 13 .89l1.02 1.06h-1.8c-.54 0-1.08.24-1.45.65L7.73 5.95 4.7 2.62a1.94 1.94 0 0 0-1.45-.65H.5v1.3h2.75c.17 0 .37.09.48.22l3.11 3.46-3.1 3.46a.7.7 0 0 1-.47.22H.5v1.3h2.75c.56 0 1.08-.24 1.45-.65Z"/></svg>